<svg id="Calque_1" data-name="Calque 1" xmlns="http://www.w3.org/2000/svg" width="203.4mm" height="19.2mm" viewBox="0 0 576.4 54.4"><defs><style>.cls-1,.cls-2{fill:#fff;}.cls-2{stroke:#fff;stroke-miterlimit:10;stroke-width:9px;}</style></defs><path class="cls-1" d="M92.1,67.3a.7.7,0,0,1,.2.7c-.1.2-.3.3-.7.3h-16a1,1,0,0,1-.9-.6l-5.1-7.8H28.2l-5,7.9a1,1,0,0,1-1,.5H6.4c-.7,0-.9-.3-.5-1L39.7,17.8a1.1,1.1,0,0,1,.9-.5H57.9a.7.7,0,0,1,.8.5ZM35.4,48.7H62.5L49.1,27.8h-.4Z" transform="translate(-5.7 -16.4)"/><path class="cls-1" d="M134.1,69.3c-4.8,0-9-.1-12.3-.3a67.6,67.6,0,0,1-9.5-1,25.9,25.9,0,0,1-7-1.9,16.5,16.5,0,0,1-4.6-3.2,11.9,11.9,0,0,1-3-4.6A29.6,29.6,0,0,1,96.3,52c0-.7.2-1.1.8-1.1h15c.6,0,.9.4.9,1.1.3,2.3,1.8,3.9,4.6,4.7s8.2,1.1,16.2,1.1h7.7c6.5,0,11.5-.2,14.8-.5s5.6-.9,6.7-1.5a2.9,2.9,0,0,0,1.6-2.7,2.8,2.8,0,0,0-.7-2.1,9.1,9.1,0,0,0-3.8-1.4,81.1,81.1,0,0,0-8.4-1l-15.1-.5c-11.2-.3-19.6-1-25-2s-9.3-2.6-11.3-4.6-2.9-5.1-2.9-9.1,2.8-9.5,8.4-12.1,15.1-3.9,28.4-3.9h7c9,0,16.2.7,21.6,2s9.1,3.2,11.4,5.6a17.8,17.8,0,0,1,4.3,9.6c.1.6-.1.9-.7.9H163.3q-.7,0-.9-.9c-.3-2.3-2.1-3.9-5.1-4.8s-8.4-1.3-15.8-1.3h-7.6a129.7,129.7,0,0,0-14.5.6c-3.3.4-5.3,1-6.2,1.6a3.2,3.2,0,0,0-1.3,2.6,2.5,2.5,0,0,0,.8,2c.4.5,1.6.9,3.4,1.3a52.6,52.6,0,0,0,7.9.9c3.4.3,8.1.5,14.2.7s10.2.4,14,.6,7.2.6,10.5,1.2a42,42,0,0,1,7.7,1.8,16.2,16.2,0,0,1,5,2.8,10,10,0,0,1,2.9,4,18.2,18.2,0,0,1,.8,5.5c0,6.3-2.8,10.6-8.4,12.8s-15.5,3.4-29.6,3.4Z" transform="translate(-5.7 -16.4)"/><path class="cls-1" d="M216.7,68.3c-.5,0-.7-.3-.7-.8V18c0-.5.2-.7.7-.7h42.9c12.7,0,22.2,2.2,28.6,6.6s9.5,10.6,9.5,18.8-3.2,14.5-9.6,19-15.9,6.6-28.5,6.6ZM229.4,57h30.3c7.3,0,13-1.2,17.2-3.6a11.4,11.4,0,0,0,6.4-10.7c0-4.7-2.2-8.2-6.4-10.6s-10-3.5-17.3-3.6H229.4Z" transform="translate(-5.7 -16.4)"/><path class="cls-1" d="M304.3,68.3a.7.7,0,0,1-.8-.8V18c0-.5.3-.7.8-.7h79.1c.5,0,.7.2.7.7v9.8c0,.5-.2.7-.7.7H317v8.6h54.6c.6,0,.8.2.8.7v9.4c0,.5-.2.7-.8.7H317V57h66.5c.5,0,.8.2.8.7v9.8a.7.7,0,0,1-.8.8Z" transform="translate(-5.7 -16.4)"/><path class="cls-2" d="M198.2,23.4V66.3h-5.9V23.4Z" transform="translate(-5.7 -16.4)"/><path class="cls-1" d="M438.4,58.1c0,1.9-2,3.5-6.1,5.1l-8.4,2.5c-1.2.6-3.1,1.5-5.6,2.5a30.7,30.7,0,0,1-10.1,1.5c-4.7,0-7.1-.7-7.1-2.2s.9-2.3,2.7-3.5a14.1,14.1,0,0,1,7.2-1.8h7.6a5.4,5.4,0,0,0,2.6-.4,2.5,2.5,0,0,0,.9-2.3q0-1.8-2.4-3.9c-1.5-1.4-4.5-2.6-8.9-3.6a63.4,63.4,0,0,1-9.8-2.9c-3.1-1.7-4.6-4.1-4.6-7.4,0-5.2,4.1-9.1,12.2-11.6a59.3,59.3,0,0,1,18.8-2.8c4.9,0,7.3.8,7.3,2.4s-.2,1.3-.8,1.3a7.6,7.6,0,0,1-2.1-.5,7.3,7.3,0,0,0-2.2-.4,66.4,66.4,0,0,0-17.1,2.4c-8.1,2.2-12.2,5.1-12.2,8.8,0,1.5.9,3,2.8,4.3s5.2,2.5,10.2,3.5,7.9,2.6,10.1,5a10,10,0,0,1,2.7,7.1c0,.3.1.4.3.4s5.2-1.4,11.5-4.2C438.2,57.4,438.4,57.6,438.4,58.1Zm-22.8,7.5h-1a25.3,25.3,0,0,0-3.4.2c-1.9.2-2.9.3-3,.5h.7A34.7,34.7,0,0,0,415.6,65.6Z" transform="translate(-5.7 -16.4)"/><path class="cls-1" d="M479.4,37.9a3.3,3.3,0,0,1-.7,1.5c-.5.5-2.8.9-7,1h-8c-2.7,0-6.2.2-10.6.5-1.6.3-3.6,3.3-5.9,8.9s-3.1,8.9-3.1,11.1.6,2.5,1.9,2.5,4.3-.9,7.8-2.6,5.6-2.5,6-2.5.5.2.5.6a3.3,3.3,0,0,1-1.8,2.7l-2.9,1.7c-4.3,2.3-8,3.5-11.1,3.5a4.7,4.7,0,0,1-3.2-1.2,5.4,5.4,0,0,1-1.5-3.1,9.5,9.5,0,0,0-.3-2.1.5.5,0,0,0-.5-.3,19.3,19.3,0,0,0-3.5,1.6,11,11,0,0,1-4.8,1.6c-1.2,0-1.8-.2-1.8-.8s1.1-1.1,3.2-2.3a30.4,30.4,0,0,0,4.6-3c1.3-1.1,3.2-3.6,5.6-7.4s3.8-6.8,3.8-8.1-1.1-.7-3.2-.7q-9,0-9-2.4t3-2.1l2.1.3,2.1.3H448a2.3,2.3,0,0,0,1.9-1.4l1.8-2.8a3.6,3.6,0,0,1,2.7-1.6c.9,0,1.3.6,1.3,1.8a4.5,4.5,0,0,1-.5,2,10.7,10.7,0,0,0-.5,1.6c0,.1.2.2.4.3a22.1,22.1,0,0,0,3.9.3,26.2,26.2,0,0,0,4,0h13.6C478.4,37,479.4,37.3,479.4,37.9Z" transform="translate(-5.7 -16.4)"/><path class="cls-1" d="M498.6,59.1c0,1.4-2.3,3.1-6.9,5.2s-7.2,2.7-9,2.7a5.5,5.5,0,0,1-4.4-1.9c-.6-.7-1.2-1.3-1.7-2l-3.1,1.8a24.3,24.3,0,0,1-11.3,3.3c-2.5,0-3.8-2.1-3.8-6.2q0-3.6,3-9.3c2.1-4.1,4.2-6.1,6.1-6.1s1.4.7,1.4,2.2a7.6,7.6,0,0,1-1.6,2.5,18.8,18.8,0,0,0-3,4.3,12.3,12.3,0,0,0-1.6,6c0,1.7.6,2.6,2,2.6s4.7-1.1,8.2-3.2,4.2-3.2,4.7-4.9c1.5-5.1,3.1-7.6,4.9-7.6s1.9.7,1.9,2.2a32.2,32.2,0,0,1-1.4,4,16.2,16.2,0,0,0-1.4,5.2c0,2,1,3.1,3.2,3.1s4.4-.8,7.6-2.3,5.1-2.2,5.6-2.2A.5.5,0,0,1,498.6,59.1Z" transform="translate(-5.7 -16.4)"/><path class="cls-1" d="M531.8,59.1c0,1.5-2.2,3.3-6.7,5.2s-7,2.7-8.9,2.7-3.1-.4-3.7-1.2-.8-1.7-1.2-3.7l-.6.5a18.2,18.2,0,0,1-5.5,4.5,12.5,12.5,0,0,1-6.6,2.3c-3.1,0-4.7-1.2-4.7-3.8s2.2-7.3,6.5-12.4,8.1-7.7,11.1-7.7a4.3,4.3,0,0,1,1.7.7,3.7,3.7,0,0,0,1.6.7c.6,0,2.4-4,5.6-11.9a8.9,8.9,0,0,1,1.9-2.7,4.1,4.1,0,0,1,2.8-1.6c.6,0,1,1.3,1,3.7a3.2,3.2,0,0,1-.4,1.9l-.9,1.5a16.6,16.6,0,0,0-1.2,3.8,22.6,22.6,0,0,1-2.1,4.6c-.8,1.7-2,4.3-3.5,8.1s-2.4,6.6-2.4,7.5.7,1.5,2,1.5,4.2-.8,7.8-2.4l5.8-2.3C531.6,58.6,531.8,58.7,531.8,59.1Zm-17.7-9.5c0-.5-.4-.8-1.2-.8-2.9,0-6,1.9-9.4,5.8s-5.1,7.2-5.1,10c0,.9.4,1.4,1.3,1.4s3.4-1.4,6.6-4.3,4.9-4.4,5.8-5.9a16.6,16.6,0,0,0,1.1-3A18.7,18.7,0,0,0,514.1,49.6Z" transform="translate(-5.7 -16.4)"/><path class="cls-1" d="M556,59.2c0,1.5-2.9,3.5-8.6,5.9s-9.1,3.4-11.3,3.4a3.4,3.4,0,0,1-3.4-2,17.5,17.5,0,0,1-.7-4.3,2.5,2.5,0,0,0-.4-1.4c-2.9,1.7-5,2.5-6.5,2.5s-1.8-.2-1.8-.8.1-.5.5-.8l2.9-1.5a19.1,19.1,0,0,0,4.4-3,49.5,49.5,0,0,0,3.6-5c1.7-2.6,2.8-3.8,3.3-3.8a1.6,1.6,0,0,1,1.4.8,2.8,2.8,0,0,1,.7,1.7c0,.6-.7,2.3-2,5.1a17.6,17.6,0,0,0-2,6.9,1.7,1.7,0,0,0,1.8,1.9c1.8,0,5.1-1.1,9.9-3.2a60.8,60.8,0,0,1,7.7-3.2C555.8,58.4,556,58.6,556,59.2Zm-9.5-28.7c0,1.3-.9,2-2.6,2a3.7,3.7,0,0,1-2.3-.7,2.5,2.5,0,0,1-1-2,2.7,2.7,0,0,1,.6-1.7,1.6,1.6,0,0,1,1.4-.8,4,4,0,0,1,2.5,1A3.3,3.3,0,0,1,546.5,30.5Z" transform="translate(-5.7 -16.4)"/><path class="cls-1" d="M582.2,58.5c0,1.5-1.4,2.9-4.1,4.2a15.7,15.7,0,0,1-6.2,1.7,4.5,4.5,0,0,1-1.8-.4l-1.8-.3a5,5,0,0,0-1.4,1c-3.2,2.7-6.5,4.1-10.1,4.1s-4.1-1.8-4.1-5.4a14.9,14.9,0,0,1,1.9-7.5,12,12,0,0,1,5.5-5.4l2.1-1c.7,0,1,.2,1,.7s-1,1.3-3,4.5-2.9,5.9-2.9,8.1.5,2,1.6,2a10.7,10.7,0,0,0,4.3-1.8c2.1-1.2,3.1-2.1,3.1-2.8a21.3,21.3,0,0,1-2-7.7,4.9,4.9,0,0,1,1.5-3.5,4.3,4.3,0,0,1,3.4-1.6,3.8,3.8,0,0,1,3.3,1.8,6.8,6.8,0,0,1,1.3,4c0,1.2-.8,3.5-2.5,7,0,.6.5.9,1.7.9s4.1-1.1,8.7-3.2C582,57.9,582.2,58.1,582.2,58.5Zm-12.7-5.8c0-.7-.2-1-.7-1a2,2,0,0,0-.2.9c0,1.4.2,2.1.5,2.1A4,4,0,0,0,569.5,52.7Z" transform="translate(-5.7 -16.4)"/></svg>